ffmpeg version 2.8.15-0ubuntu0.16.04.1 Copyright (c) 2000-2018 the FFmpeg developers
  built with gcc 5.4.0 (Ubuntu 5.4.0-6ubuntu1~16.04.10) 20160609
  configuration: --prefix=/usr --extra-version=0ubuntu0.16.04.1 --build-suffix=-ffmpeg --toolchain=hardened --libdir=/usr/lib/x86_64-linux-gnu --incdir=/usr/include/x86_64-linux-gnu --cc=cc --cxx=g++ --enable-gpl --enable-shared --disable-stripping --disable-decoder=libopenjpeg --disable-decoder=libschroedinger --enable-avresample --enable-avisynth --enable-gnutls --enable-ladspa --enable-libass --enable-libbluray --enable-libbs2b --enable-libcaca --enable-libcdio --enable-libflite --enable-libfontconfig --enable-libfreetype --enable-libfribidi --enable-libgme --enable-libgsm --enable-libmodplug --enable-libmp3lame --enable-libopenjpeg --enable-libopus --enable-libpulse --enable-librtmp --enable-libschroedinger --enable-libshine --enable-libsnappy --enable-libsoxr --enable-libspeex --enable-libssh --enable-libtheora --enable-libtwolame --enable-libvorbis --enable-libvpx --enable-libwavpack --enable-libwebp --enable-libx265 --enable-libxvid --enable-libzvbi --enable-openal --enable-opengl --enable-x11grab --enable-libdc1394 --enable-libiec61883 --enable-libzmq --enable-frei0r --enable-libx264 --enable-libopencv
  libavutil      54. 31.100 / 54. 31.100
  libavcodec     56. 60.100 / 56. 60.100
  libavformat    56. 40.101 / 56. 40.101
  libavdevice    56.  4.100 / 56.  4.100
  libavfilter     5. 40.101 /  5. 40.101
  libavresample   2.  1.  0 /  2.  1.  0
  libswscale      3.  1.101 /  3.  1.101
  libswresample   1.  2.101 /  1.  2.101
  libpostproc    53.  3.100 / 53.  3.100
Input #0, image2pipe, from 'pipe:':
  Duration: N/A, bitrate: N/A
    Stream #0:0: Video: ppm, rgb24, 512x512, 12 fps, 12 tbr, 12 tbn, 12 tbc
[libx264 @ 0x1260c00] using cpu capabilities: MMX2 SSE2Fast SSSE3 SSE4.2 AVX
[libx264 @ 0x1260c00] profile High, level 2.2
[libx264 @ 0x1260c00] 264 - core 148 r2643 5c65704 - H.264/MPEG-4 AVC codec - Copyleft 2003-2015 - http://www.videolan.org/x264.html - options: cabac=1 ref=3 deblock=1:0:0 analyse=0x3:0x113 me=hex subme=7 psy=1 psy_rd=1.00:0.00 mixed_ref=1 me_range=16 chroma_me=1 trellis=1 8x8dct=1 cqm=0 deadzone=21,11 fast_pskip=1 chroma_qp_offset=-2 threads=12 lookahead_threads=2 sliced_threads=0 nr=0 decimate=1 interlaced=0 bluray_compat=0 constrained_intra=0 bframes=3 b_pyramid=2 b_adapt=1 b_bias=0 direct=1 weightb=1 open_gop=0 weightp=2 keyint=250 keyint_min=12 scenecut=40 intra_refresh=0 rc_lookahead=40 rc=abr mbtree=1 bitrate=400 ratetol=1.0 qcomp=0.60 qpmin=0 qpmax=69 qpstep=4 ip_ratio=1.40 aq=1:1.00
Output #0, mp4, to './mission_records/d77cb062-89c9-4559-9ef7-896700089bd9/video.mp4':
  Metadata:
    encoder         : Lavf56.40.101
    Stream #0:0: Video: h264 (libx264) ([33][0][0][0] / 0x0021), yuv420p, 512x512, q=-1--1, 400 kb/s, 12 fps, 12288 tbn, 12 tbc
    Metadata:
      encoder         : Lavc56.60.100 libx264
Stream mapping:
  Stream #0:0 -> #0:0 (ppm (native) -> h264 (libx264))
frame=   14 fps=0.0 q=0.0 size=       0kB time=00:00:00.00 bitrate=N/A    frame=   20 fps= 18 q=0.0 size=       0kB time=00:00:00.00 bitrate=N/A    frame=   25 fps= 16 q=0.0 size=       0kB time=00:00:00.00 bitrate=N/A    frame=   31 fps= 14 q=0.0 size=       0kB time=00:00:00.00 bitrate=N/A    frame=   37 fps= 14 q=0.0 size=       0kB time=00:00:00.00 bitrate=N/A    frame=   43 fps= 13 q=0.0 size=       0kB time=00:00:00.00 bitrate=N/A    frame=   49 fps= 13 q=0.0 size=       0kB time=00:00:00.00 bitrate=N/A    frame=   55 fps= 12 q=0.0 size=       0kB time=00:00:00.00 bitrate=N/A    frame=   61 fps= 12 q=35.0 size=      72kB time=00:00:00.25 bitrate=2346.9kbits/s    frame=   66 fps= 12 q=37.0 size=      87kB time=00:00:00.66 bitrate=1074.6kbits/s    frame=   72 fps= 12 q=36.0 size=      88kB time=00:00:01.16 bitrate= 621.1kbits/s    frame=   78 fps= 12 q=30.0 size=      89kB time=00:00:01.66 bitrate= 435.3kbits/s    frame=   84 fps= 12 q=27.0 size=      89kB time=00:00:02.16 bitrate= 335.4kbits/s    frame=   90 fps= 12 q=23.0 size=      89kB time=00:00:02.66 bitrate= 273.0kbits/s    frame=   96 fps= 12 q=20.0 size=      91kB time=00:00:03.16 bitrate= 235.8kbits/s    frame=  102 fps= 12 q=16.0 size=      95kB time=00:00:03.66 bitrate= 212.9kbits/s    frame=  108 fps= 12 q=15.0 size=     122kB time=00:00:04.16 bitrate= 240.6kbits/s    frame=  114 fps= 11 q=22.0 size=     263kB time=00:00:04.66 bitrate= 461.0kbits/s    frame=  120 fps= 11 q=27.0 size=     508kB time=00:00:05.16 bitrate= 805.8kbits/s    frame=  126 fps= 11 q=32.0 size=     683kB time=00:00:05.66 bitrate= 987.3kbits/s    frame=  132 fps= 11 q=33.0 size=     707kB time=00:00:06.16 bitrate= 939.8kbits/s    frame=  138 fps= 11 q=32.0 size=     719kB time=00:00:06.66 bitrate= 883.5kbits/s    frame=  144 fps= 11 q=32.0 size=     722kB time=00:00:07.16 bitrate= 825.1kbits/s    frame=  150 fps= 11 q=32.0 size=     761kB time=00:00:07.66 bitrate= 813.6kbits/s    frame=  156 fps= 11 q=33.0 size=     775kB time=00:00:08.16 bitrate= 777.0kbits/s    frame=  162 fps= 11 q=33.0 size=     788kB time=00:00:08.66 bitrate= 744.4kbits/s    frame=  168 fps= 11 q=33.0 size=     803kB time=00:00:09.16 bitrate= 718.0kbits/s    frame=  174 fps= 11 q=33.0 size=     837kB time=00:00:09.66 bitrate= 709.5kbits/s    frame=  180 fps= 11 q=34.0 size=     870kB time=00:00:10.16 bitrate= 701.2kbits/s    frame=  186 fps= 11 q=34.0 size=     902kB time=00:00:10.66 bitrate= 692.6kbits/s    frame=  192 fps= 11 q=35.0 size=     920kB time=00:00:11.16 bitrate= 675.1kbits/s    frame=  198 fps= 11 q=35.0 size=     949kB time=00:00:11.66 bitrate= 666.3kbits/s    frame=  204 fps= 11 q=35.0 size=     973kB time=00:00:12.16 bitrate= 655.1kbits/s    frame=  210 fps= 11 q=35.0 size=     984kB time=00:00:12.66 bitrate= 636.7kbits/s    frame=  216 fps= 11 q=35.0 size=     995kB time=00:00:13.16 bitrate= 619.1kbits/s    frame=  222 fps= 11 q=35.0 size=    1021kB time=00:00:13.66 bitrate= 611.9kbits/s    frame=  228 fps= 11 q=36.0 size=    1049kB time=00:00:14.16 bitrate= 606.5kbits/s    frame=  234 fps= 11 q=36.0 size=    1070kB time=00:00:14.66 bitrate= 597.4kbits/s    frame=  240 fps= 11 q=36.0 size=    1081kB time=00:00:15.16 bitrate= 584.0kbits/s    frame=  246 fps= 11 q=35.0 size=    1096kB time=00:00:15.66 bitrate= 573.0kbits/s    frame=  252 fps= 11 q=35.0 size=    1112kB time=00:00:16.16 bitrate= 563.6kbits/s    frame=  258 fps= 11 q=35.0 size=    1132kB time=00:00:16.66 bitrate= 556.3kbits/s    frame=  264 fps= 11 q=35.0 size=    1139kB time=00:00:17.16 bitrate= 543.8kbits/s    frame=  270 fps= 11 q=35.0 size=    1148kB time=00:00:17.66 bitrate= 532.2kbits/s    frame=  276 fps= 11 q=34.0 size=    1162kB time=00:00:18.16 bitrate= 523.9kbits/s    frame=  282 fps= 11 q=35.0 size=    1196kB time=00:00:18.66 bitrate= 524.9kbits/s    frame=  288 fps= 11 q=35.0 size=    1215kB time=00:00:19.16 bitrate= 519.2kbits/s    frame=  294 fps= 11 q=32.0 size=    1227kB time=00:00:19.66 bitrate= 511.0kbits/s    frame=  300 fps= 11 q=34.0 size=    1236kB time=00:00:20.16 bitrate= 501.9kbits/s    frame=  306 fps= 11 q=34.0 size=    1247kB time=00:00:20.66 bitrate= 494.3kbits/s    frame=  312 fps= 11 q=34.0 size=    1256kB time=00:00:21.16 bitrate= 486.1kbits/s    frame=  318 fps= 11 q=33.0 size=    1268kB time=00:00:21.66 bitrate= 479.4kbits/s    frame=  324 fps= 11 q=33.0 size=    1295kB time=00:00:22.16 bitrate= 478.7kbits/s    frame=  329 fps= 11 q=34.0 size=    1324kB time=00:00:22.58 bitrate= 480.4kbits/s    frame=  335 fps= 11 q=34.0 size=    1362kB time=00:00:23.08 bitrate= 483.5kbits/s    frame=  341 fps= 11 q=34.0 size=    1396kB time=00:00:23.58 bitrate= 485.0kbits/s    frame=  347 fps= 11 q=34.0 size=    1413kB time=00:00:24.08 bitrate= 480.8kbits/s    frame=  353 fps= 11 q=34.0 size=    1428kB time=00:00:24.58 bitrate= 475.8kbits/s    frame=  359 fps= 11 q=34.0 size=    1455kB time=00:00:25.08 bitrate= 475.2kbits/s    frame=  365 fps= 11 q=34.0 size=    1470kB time=00:00:25.58 bitrate= 470.6kbits/s    frame=  371 fps= 11 q=34.0 size=    1491kB time=00:00:26.08 bitrate= 468.3kbits/s    frame=  377 fps= 11 q=34.0 size=    1515kB time=00:00:26.58 bitrate= 466.9kbits/s    frame=  383 fps= 11 q=34.0 size=    1528kB time=00:00:27.08 bitrate= 462.1kbits/s    frame=  389 fps= 11 q=34.0 size=    1545kB time=00:00:27.58 bitrate= 458.7kbits/s    frame=  395 fps= 11 q=33.0 size=    1557kB time=00:00:28.08 bitrate= 454.3kbits/s    frame=  401 fps= 11 q=33.0 size=    1571kB time=00:00:28.58 bitrate= 450.4kbits/s    frame=  407 fps= 11 q=33.0 size=    1590kB time=00:00:29.08 bitrate= 447.8kbits/s    frame=  413 fps= 11 q=33.0 size=    1595kB time=00:00:29.58 bitrate= 441.7kbits/s    frame=  419 fps= 11 q=30.0 size=    1604kB time=00:00:30.08 bitrate= 436.9kbits/s    frame=  425 fps= 11 q=32.0 size=    1613kB time=00:00:30.58 bitrate= 431.9kbits/s    frame=  431 fps= 11 q=32.0 size=    1629kB time=00:00:31.08 bitrate= 429.3kbits/s    frame=  437 fps= 11 q=32.0 size=    1636kB time=00:00:31.58 bitrate= 424.3kbits/s    frame=  443 fps= 11 q=31.0 size=    1648kB time=00:00:32.08 bitrate= 420.7kbits/s    frame=  449 fps= 11 q=31.0 size=    1658kB time=00:00:32.58 bitrate= 416.8kbits/s    frame=  455 fps= 11 q=31.0 size=    1697kB time=00:00:33.08 bitrate= 420.2kbits/s    frame=  461 fps= 11 q=32.0 size=    1726kB time=00:00:33.58 bitrate= 420.9kbits/s    frame=  467 fps= 11 q=32.0 size=    1745kB time=00:00:34.08 bitrate= 419.4kbits/s    frame=  473 fps= 11 q=32.0 size=    1773kB time=00:00:34.58 bitrate= 419.9kbits/s    frame=  479 fps= 11 q=32.0 size=    1800kB time=00:00:35.08 bitrate= 420.4kbits/s    frame=  485 fps= 11 q=32.0 size=    1817kB time=00:00:35.58 bitrate= 418.3kbits/s    frame=  491 fps= 11 q=32.0 size=    1851kB time=00:00:36.08 bitrate= 420.3kbits/s    frame=  497 fps= 11 q=32.0 size=    1878kB time=00:00:36.58 bitrate= 420.6kbits/s    frame=  503 fps= 11 q=29.0 size=    1904kB time=00:00:37.08 bitrate= 420.6kbits/s    frame=  509 fps= 11 q=32.0 size=    1919kB time=00:00:37.58 bitrate= 418.4kbits/s    frame=  515 fps= 11 q=31.0 size=    1929kB time=00:00:38.08 bitrate= 414.9kbits/s    frame=  521 fps= 11 q=31.0 size=    1945kB time=00:00:38.58 bitrate= 413.0kbits/s    frame=  527 fps= 11 q=31.0 size=    1952kB time=00:00:39.08 bitrate= 409.2kbits/s    frame=  533 fps= 11 q=31.0 size=    1975kB time=00:00:39.58 bitrate= 408.7kbits/s    frame=  539 fps= 11 q=31.0 size=    2013kB time=00:00:40.08 bitrate= 411.4kbits/s    frame=  545 fps= 11 q=32.0 size=    2060kB time=00:00:40.58 bitrate= 415.8kbits/s    frame=  551 fps= 11 q=31.0 size=    2075kB time=00:00:41.08 bitrate= 413.7kbits/s    frame=  557 fps= 11 q=31.0 size=    2090kB time=00:00:41.58 bitrate= 411.7kbits/s    frame=  563 fps= 11 q=31.0 size=    2121kB time=00:00:42.08 bitrate= 413.0kbits/s    frame=  569 fps= 11 q=31.0 size=    2125kB time=00:00:42.58 bitrate= 408.8kbits/s    frame=  575 fps= 11 q=31.0 size=    2150kB time=00:00:43.08 bitrate= 408.7kbits/s    frame=  581 fps= 11 q=31.0 size=    2177kB time=00:00:43.58 bitrate= 409.1kbits/s    frame=  587 fps= 11 q=31.0 size=    2228kB time=00:00:44.08 bitrate= 414.0kbits/s    frame=  593 fps= 11 q=32.0 size=    2255kB time=00:00:44.58 bitrate= 414.3kbits/s    frame=  599 fps= 11 q=31.0 size=    2268kB time=00:00:45.08 bitrate= 412.1kbits/s    frame=  605 fps= 11 q=32.0 size=    2328kB time=00:00:45.58 bitrate= 418.5kbits/s    frame=  611 fps= 11 q=32.0 size=    2347kB time=00:00:46.08 bitrate= 417.2kbits/s    frame=  617 fps= 11 q=32.0 size=    2384kB time=00:00:46.58 bitrate= 419.3kbits/s    frame=  623 fps= 11 q=32.0 size=    2417kB time=00:00:47.08 bitrate= 420.6kbits/s    frame=  629 fps= 11 q=33.0 size=    2468kB time=00:00:47.58 bitrate= 424.8kbits/s    frame=  635 fps= 11 q=33.0 size=    2504kB time=00:00:48.08 bitrate= 426.6kbits/s    frame=  641 fps= 11 q=33.0 size=    2546kB time=00:00:48.58 bitrate= 429.4kbits/s    frame=  647 fps= 11 q=30.0 size=    2565kB time=00:00:49.08 bitrate= 428.1kbits/s    frame=  653 fps= 11 q=33.0 size=    2573kB time=00:00:49.58 bitrate= 425.2kbits/s    frame=  659 fps= 11 q=33.0 size=    2607kB time=00:00:50.08 bitrate= 426.5kbits/s    frame=  665 fps= 11 q=33.0 size=    2628kB time=00:00:50.58 bitrate= 425.5kbits/s    frame=  671 fps= 11 q=33.0 size=    2669kB time=00:00:51.08 bitrate= 428.1kbits/s    frame=  677 fps= 11 q=33.0 size=    2697kB time=00:00:51.58 bitrate= 428.4kbits/s    frame=  683 fps= 11 q=33.0 size=    2729kB time=00:00:52.08 bitrate= 429.3kbits/s    frame=  689 fps= 11 q=33.0 size=    2751kB time=00:00:52.58 bitrate= 428.6kbits/s    frame=  695 fps= 11 q=33.0 size=    2790kB time=00:00:53.08 bitrate= 430.5kbits/s    frame=  701 fps= 11 q=33.0 size=    2818kB time=00:00:53.58 bitrate= 430.8kbits/s    frame=  707 fps= 11 q=33.0 size=    2842kB time=00:00:54.08 bitrate= 430.5kbits/s    frame=  713 fps= 11 q=33.0 size=    2859kB time=00:00:54.58 bitrate= 429.1kbits/s    frame=  719 fps= 11 q=30.0 size=    2877kB time=00:00:55.08 bitrate= 427.8kbits/s    frame=  725 fps= 11 q=33.0 size=    2881kB time=00:00:55.58 bitrate= 424.6kbits/s    frame=  731 fps= 11 q=33.0 size=    2915kB time=00:00:56.08 bitrate= 425.9kbits/s    frame=  736 fps= 11 q=33.0 size=    2949kB time=00:00:56.50 bitrate= 427.6kbits/s    frame=  742 fps= 11 q=34.0 size=    2998kB time=00:00:57.00 bitrate= 430.9kbits/s    frame=  748 fps= 11 q=34.0 size=    3035kB time=00:00:57.50 bitrate= 432.4kbits/s    frame=  754 fps= 11 q=34.0 size=    3056kB time=00:00:58.00 bitrate= 431.6kbits/s    frame=  760 fps= 11 q=34.0 size=    3102kB time=00:00:58.50 bitrate= 434.5kbits/s    frame=  766 fps= 11 q=34.0 size=    3133kB time=00:00:59.00 bitrate= 435.0kbits/s    frame=  772 fps= 11 q=34.0 size=    3154kB time=00:00:59.50 bitrate= 434.2kbits/s    frame=  778 fps= 11 q=31.0 size=    3185kB time=00:01:00.00 bitrate= 434.9kbits/s    frame=  784 fps= 11 q=34.0 size=    3206kB time=00:01:00.50 bitrate= 434.1kbits/s    frame=  790 fps= 11 q=34.0 size=    3257kB time=00:01:01.00 bitrate= 437.4kbits/s    frame=  795 fps= 11 q=35.0 size=    3286kB time=00:01:01.41 bitrate= 438.4kbits/s    frame=  801 fps= 11 q=35.0 size=    3307kB time=00:01:01.91 bitrate= 437.5kbits/s    frame=  807 fps= 11 q=35.0 size=    3331kB time=00:01:02.41 bitrate= 437.2kbits/s    frame=  813 fps= 11 q=35.0 size=    3359kB time=00:01:02.91 bitrate= 437.3kbits/s    frame=  816 fps= 11 q=-1.0 Lsize=    3487kB time=00:01:07.83 bitrate= 421.1kbits/s    
video:3480kB audio:0kB subtitle:0kB other streams:0kB global headers:0kB muxing overhead: 0.216498%
[libx264 @ 0x1260c00] frame I:29    Avg QP:25.16  size:  9698
[libx264 @ 0x1260c00] frame P:574   Avg QP:29.20  size:  4860
[libx264 @ 0x1260c00] frame B:213   Avg QP:30.90  size:  2307
[libx264 @ 0x1260c00] consecutive B-frames: 55.3% 28.4%  4.0% 12.3%
[libx264 @ 0x1260c00] mb I  I16..4: 15.0% 52.7% 32.4%
[libx264 @ 0x1260c00] mb P  I16..4:  4.3% 14.7%  5.3%  P16..4: 34.8% 15.1%  6.9%  0.0%  0.0%    skip:18.8%
[libx264 @ 0x1260c00] mb B  I16..4:  0.5%  0.7%  0.5%  B16..8: 36.0% 11.1%  2.7%  direct: 1.2%  skip:47.3%  L0:47.3% L1:50.6% BI: 2.2%
[libx264 @ 0x1260c00] final ratefactor: 28.92
[libx264 @ 0x1260c00] 8x8 transform intra:58.9% inter:63.5%
[libx264 @ 0x1260c00] coded y,uvDC,uvAC intra: 33.9% 42.3% 18.7% inter: 14.5% 10.0% 1.9%
[libx264 @ 0x1260c00] i16 v,h,dc,p: 42% 36% 16%  6%
[libx264 @ 0x1260c00] i8 v,h,dc,ddl,ddr,vr,hd,vl,hu: 30% 15% 32%  3%  4%  4%  5%  3%  4%
[libx264 @ 0x1260c00] i4 v,h,dc,ddl,ddr,vr,hd,vl,hu: 31% 25% 21%  4%  3%  4%  5%  3%  3%
[libx264 @ 0x1260c00] i8c dc,h,v,p: 68% 15% 15%  2%
[libx264 @ 0x1260c00] Weighted P-Frames: Y:1.2% UV:0.7%
[libx264 @ 0x1260c00] ref P L0: 72.6% 11.6% 10.6%  5.2%  0.1%
[libx264 @ 0x1260c00] ref B L0: 84.5% 15.1%  0.4%
[libx264 @ 0x1260c00] ref B L1: 97.9%  2.1%
[libx264 @ 0x1260c00] kb/s:419.10
Exiting normally, received signal 2.
